# xmcd
#
# Track frame offsets: 
#        150
#        16610
#        34874
#        52079
#        77043
#        94390
#        111786
#        128105
#        141688
#        163315
#        180465
#        200660
#        220085
#        235699
#        258174
#        283995
#        306634
#        331559
#
# Disc length: 4727 seconds
#
# Revision: 0
# Processed by: cddbd v1.5.2PL0 Copyright (c) Steve Scherf et al.
# Submitted via: ExactAudioCopy v0.95b3
#
DISCID=0b127512
DTITLE=Righeira - Reference 80 [296.A103.020]
DYEAR=2012
DGENRE=Pop
TTITLE0=Vamos A La Playa
TTITLE1=No Tengo Dinero (LP Version)
TTITLE2=L'estate Sta Finendo
TTITLE3=Tanzen Mit Righeira
TTITLE4=Innamoratissimo
TTITLE5=Hey Mama
TTITLE6=Italians A Go-Go
TTITLE7=Prima Dell'estate
TTITLE8=Disco Volante
TTITLE9=Jazz-Muzik
TTITLE10=Kon Tiki
TTITLE11=Gli Parlero' Di Te
TTITLE12=Luciano Serra Pilota
TTITLE13=Oasi In Citta
TTITLE14=Innamoratissimo (The "In Crowd" Mix)
TTITLE15=L'estate Sta Finendo (Maxi)
TTITLE16=No Tengo Dinero (Maxi)
TTITLE17=Vamos A La Playa (Maxi)
EXTD=
EXTT0=
EXTT1=
EXTT2=
EXTT3=
EXTT4=
EXTT5=
EXTT6=
EXTT7=
EXTT8=
EXTT9=
EXTT10=
EXTT11=
EXTT12=
EXTT13=
EXTT14=
EXTT15=
EXTT16=
EXTT17=
PLAYORDER=
